<svg width="1200" height="630" viewBox="0 0 1200 630" fill="none" xmlns="http://www.w3.org/2000/svg">
  <defs>
    <linearGradient id="bgGrad" x1="0" y1="0" x2="1200" y2="630" gradientUnits="userSpaceOnUse">
      <stop offset="0%" stop-color="#1e3a8a"/>
      <stop offset="100%" stop-color="#2563eb"/>
    </linearGradient>
  </defs>
  <rect width="1200" height="630" fill="url(#bgGrad)"/>
  <rect width="1200" height="8" fill="#60a5fa"/>
  <!-- Decorative circles -->
  <circle cx="1080" cy="100" r="300" fill="white" fill-opacity="0.04"/>
  <circle cx="120" cy="530" r="200" fill="white" fill-opacity="0.04"/>
  <!-- Building icon -->
  <rect x="80" y="155" width="90" height="100" rx="6" fill="white" fill-opacity="0.12"/>
  <rect x="93" y="173" width="18" height="30" rx="3" fill="white" fill-opacity="0.55"/>
  <rect x="121" y="173" width="18" height="30" rx="3" fill="white" fill-opacity="0.55"/>
  <rect x="149" y="173" width="18" height="30" rx="3" fill="white" fill-opacity="0.55"/>
  <rect x="93" y="213" width="74" height="42" rx="3" fill="white" fill-opacity="0.55"/>
  <rect x="80" y="155" width="90" height="14" rx="3" fill="white" fill-opacity="0.45"/>
  <rect x="70" y="253" width="110" height="5" rx="2.5" fill="white" fill-opacity="0.2"/>
  <!-- Title -->
  <text x="80" y="348" fill="white" font-family="Arial, Helvetica, sans-serif" font-size="88" font-weight="700">Civic Voice</text>
  <!-- Divider -->
  <rect x="80" y="368" width="220" height="5" rx="2.5" fill="#60a5fa"/>
  <!-- Tagline -->
  <text x="80" y="420" fill="#93c5fd" font-family="Arial, Helvetica, sans-serif" font-size="34">Government Transparency Platform</text>
  <!-- Countries -->
  <text x="80" y="475" fill="#bfdbfe" font-family="Arial, Helvetica, sans-serif" font-size="25">Canada  ·  United States  ·  United Kingdom  ·  Australia</text>
  <!-- Bottom strip -->
  <rect y="565" width="1200" height="65" fill="black" fill-opacity="0.25"/>
  <text x="80" y="608" fill="#93c5fd" font-family="Arial, Helvetica, sans-serif" font-size="22">civic-voice-app.vercel.app</text>
  <!-- Right panel decoration -->
  <rect x="850" y="158" width="270" height="270" rx="24" fill="white" fill-opacity="0.06" stroke="white" stroke-width="1.5" stroke-opacity="0.12"/>
  <rect x="920" y="238" width="130" height="140" rx="5" fill="white" fill-opacity="0.1"/>
  <rect x="934" y="254" width="22" height="36" rx="3" fill="white" fill-opacity="0.3"/>
  <rect x="968" y="254" width="22" height="36" rx="3" fill="white" fill-opacity="0.3"/>
  <rect x="1002" y="254" width="22" height="36" rx="3" fill="white" fill-opacity="0.3"/>
  <rect x="934" y="302" width="90" height="76" rx="3" fill="white" fill-opacity="0.3"/>
  <rect x="920" y="238" width="130" height="16" rx="3" fill="white" fill-opacity="0.22"/>
  <rect x="910" y="376" width="150" height="5" rx="2.5" fill="white" fill-opacity="0.15"/>
</svg>
